<svg xmlns="http://www.w3.org/2000/svg" xmlns:xlink="http://www.w3.org/1999/xlink" width="16" height="16" viewBox="0 0 16 16">
  <defs>
    <style>
      .cls-1 {
        fill: #86ce8e;
        fill-rule: evenodd;
        filter: url(#filter);
      }
    </style>
    <filter id="filter" x="976" y="373" width="16" height="16" filterUnits="userSpaceOnUse">
      <feFlood result="flood" flood-color="#fff"/>
      <feComposite result="composite" operator="in" in2="SourceGraphic"/>
      <feBlend result="blend" in2="SourceGraphic"/>
    </filter>
  </defs>
  <path id="Cart_Icon_copy" data-name="Cart Icon copy" class="cls-1" d="M988.641,384.244H981.9a1.6,1.6,0,0,1-1.523-1.288l-1.642-8.191h-2.725v-1.777h2.85a1.6,1.6,0,0,1,1.523,1.287l0.455,2.268h9.9a1.237,1.237,0,0,1,1.046.543,1.346,1.346,0,0,1,.13,1.208l-1.7,4.812A1.725,1.725,0,0,1,988.641,384.244Zm-6.62-1.777h6.62l1.44-4.147H981.19Zm0.445,6.519a1.779,1.779,0,1,1,1.71-1.778A1.747,1.747,0,0,1,982.466,388.986Zm5.986,0a1.779,1.779,0,1,1,1.71-1.778A1.747,1.747,0,0,1,988.452,388.986Z" transform="translate(-976 -373)"/>
</svg>
