<svg xmlns="http://www.w3.org/2000/svg" xmlns:xlink="http://www.w3.org/1999/xlink" width="34.344" height="32.563" viewBox="0 0 34.344 32.563">
  <defs>
    <style>
      .cls-1 {
        fill: #86ce8e;
        fill-rule: evenodd;
        filter: url(#filter);
      }
    </style>
    <filter id="filter" x="480.875" y="35.438" width="34.344" height="32.563" filterUnits="userSpaceOnUse">
      <feFlood result="flood" flood-color="#e21145"/>
      <feComposite result="composite" operator="in" in2="SourceGraphic"/>
      <feBlend result="blend" in2="SourceGraphic"/>
    </filter>
  </defs>
  <path id="Cart_Icon" data-name="Cart Icon" class="cls-1" d="M508.012,58.35H493.527a3.385,3.385,0,0,1-3.271-2.621l-3.527-16.672h-5.852V35.44H487a3.388,3.388,0,0,1,3.272,2.62l0.976,4.615H512.5a2.7,2.7,0,0,1,2.246,1.105,2.611,2.611,0,0,1,.28,2.459l-3.646,9.793A3.7,3.7,0,0,1,508.012,58.35ZM493.8,54.733h14.216l3.093-8.44H492.011ZM494.751,68a3.618,3.618,0,1,1,3.673-3.618A3.649,3.649,0,0,1,494.751,68Zm12.855,0a3.618,3.618,0,1,1,3.672-3.618A3.65,3.65,0,0,1,507.606,68Z" transform="translate(-480.875 -35.438)"/>
</svg>
