<?xml version="1.0" encoding="utf-8"?>
<!-- Generator: Adobe Illustrator 16.0.0, SVG Export Plug-In . SVG Version: 6.00 Build 0)  -->
<!DOCTYPE svg PUBLIC "-//W3C//DTD SVG 1.1//EN" "http://www.w3.org/Graphics/SVG/1.1/DTD/svg11.dtd" [
	<!ENTITY ns_flows "http://ns.adobe.com/Flows/1.0/">
	<!ENTITY ns_extend "http://ns.adobe.com/Extensibility/1.0/">
	<!ENTITY ns_ai "http://ns.adobe.com/AdobeIllustrator/10.0/">
	<!ENTITY ns_graphs "http://ns.adobe.com/Graphs/1.0/">
]>
<svg version="1.1" id="Layer_1" xmlns:x="&ns_extend;" xmlns:i="&ns_ai;" xmlns:graph="&ns_graphs;"
	 xmlns="http://www.w3.org/2000/svg" xmlns:xlink="http://www.w3.org/1999/xlink" xmlns:a="http://ns.adobe.com/AdobeSVGViewerExtensions/3.0/"
	 x="0px" y="0px" width="1026px" height="365px" viewBox="0 0 1026 365" enable-background="new 0 0 1026 365" xml:space="preserve"
	>
<g>
	<path fill="#E31145" d="M703.538,350.046c24.532,0,44.548-20.014,44.548-44.528c0-24.522-20.016-45.037-44.548-45.037
		c-25.013,0-45.028,20.515-45.028,45.037C658.51,330.032,678.525,350.046,703.538,350.046z"/>
	<path fill="#E31145" d="M569.936,67.822c13.514,0,24.014-11.007,24.014-24.014c0-13.016-10.5-24.023-24.014-24.023
		c-13.017,0-23.515,11.008-23.515,24.023C546.421,56.815,556.919,67.822,569.936,67.822z"/>
	<path fill="#E31145" d="M836.644,349.047c24.03,0,43.545-19.515,43.545-43.529c0-24.022-19.515-43.538-43.545-43.538
		c-24.014,0-43.528,19.516-43.528,43.538C793.115,329.532,812.63,349.047,836.644,349.047z"/>
	<path fill="#E31145" d="M703.538,209.435c17.516,0,31.531-14.007,31.531-32.022c0-9.006-4.998-16.015-10.016-23.014
		c-23.016-30.531-16.998-82.067-8.998-101.582c0.499-1.5,2.498-7.508,2.498-9.008c0-8.508-6.999-15.016-15.016-15.016
		c-8.497,0-14.498,8.008-15.496,15.016c-0.519,3.5,0.482,6.5,2.498,9.008c16,24.514,6.001,84.566-10.515,103.082
		c-5,5.499-8.499,13.506-8.499,21.514C671.526,195.428,685.525,209.435,703.538,209.435z"/>
	<path fill="#E31145" d="M969.766,191.428c7.998,0,13.996-6.008,13.996-14.016c0-7.507-5.998-13.506-13.996-13.506
		c-7.518,0-14.016,5.999-14.016,13.506C955.75,185.42,962.248,191.428,969.766,191.428z"/>
	<path fill="#E31145" d="M836.644,202.436c13.517,0,24.532-11.008,24.532-25.023c0-13.506-11.016-24.521-24.532-24.521
		c-13.5,0-24.516,11.016-24.516,24.521C812.128,191.428,823.144,202.436,836.644,202.436z"/>
	<path fill="#E31145" d="M969.766,337.54c17.996,0,32.012-14.508,32.012-32.022s-14.016-32.03-32.012-32.03
		c-17.516,0-32.03,14.516-32.03,32.03S952.25,337.54,969.766,337.54z"/>
	<path fill="#E31145" d="M373.278,305.518c0,14.507,4.508,28.522,13.515,39.03c5.939,7.071,7.88,14.062,7.137,20.452h85.385
		c-1.276-11.533,6.392-24.366,23.576-25.461c18.738-1.117,25.276,12.938,22.155,25.461h95.29
		c-1.652-11.215,3.742-22.98,9.143-36.968c3.019-7.008,4.017-15.007,4.017-22.515c0-22.522-11.516-43.038-29.029-53.546
		c-18.517-12.006-36.03-22.514-8.499-47.036c6.997-6.508,11.499-16.516,11.499-27.023c0-21.014-16.516-38.029-37.53-38.029
		c-20.516,0-37.531,17.016-37.531,38.029c0,11.008,5.5,21.016,13.016,28.023c15.015,14.016,20.016,30.522-4,42.537
		c-6.516,3.499-12.516,7.999-17.515,13.507c-17.015,20.016-28.03,11.008-42.037-1c-12.007-10.507-27.523-19.014-45.038-19.014
		C401.801,241.966,373.278,270.487,373.278,305.518z"/>
	<path fill="#E31145" d="M436.831,66.323c12.507,0,22.514-10.008,22.514-22.515c0-12.516-10.007-22.523-22.514-22.523
		s-22.514,10.008-22.514,22.523C414.316,56.315,424.323,66.323,436.831,66.323z"/>
	<path fill="#E31145" d="M33.01,321.024c3.5,0.5,6.507-0.5,9.507-2c25.523-17.015,87.067-7.508,106.582,10.508
		c6.008,5.508,14.015,9.008,23.023,9.008c18.015,0,33.022-15.008,33.022-33.022c0-18.515-15.007-33.03-33.022-33.03
		c-9.507,0-17.015,5.008-24.523,10.508c-29.521,22.023-81.567,18.015-102.082,10.007c-1.5-0.5-7.508-3.499-12.507-3
		c-8.507,0.501-15.515,7.009-15.515,15.516C17.495,314.025,26.002,320.024,33.01,321.024z"/>
	<path fill="#E31145" d="M170.123,210.443c18.015,0,33.021-15.016,33.021-33.031c0-17.515-15.006-32.521-33.021-32.521
		c-17.516,0-32.531,15.007-32.531,32.521C137.592,195.428,152.606,210.443,170.123,210.443z"/>
	<path fill="#E31145" d="M37.009,193.428c9.007,0,16.015-7.008,16.015-16.016c0-8.507-7.008-15.515-16.015-15.515
		c-8.507,0-15.507,7.008-15.507,15.515C21.502,186.42,28.501,193.428,37.009,193.428z"/>
	<path fill="#E31145" d="M303.726,58.815c8.507,0,15.007-6.499,15.007-15.007s-6.5-15.016-15.007-15.016
		s-15.515,6.508-15.515,15.016S295.219,58.815,303.726,58.815z"/>
	<path fill="#E31145" d="M274.705,344.548c7.099,5.462,13.292,13.012,13.966,20.452h37.011c-0.072-5.348,1.838-11.104,6.567-16.953
		c9.008-11.507,19.515-26.522,19.515-42.529c0.5-23.022-21.515-48.537-48.038-48.537c-27.023,0-48.537,22.015-48.537,48.537
		C255.189,321.524,263.197,335.04,274.705,344.548z"/>
	<path fill="#E31145" d="M303.726,215.443c11.008-1,21.015-7.009,28.022-14.508c18.016-19.523,58.545-19.023,77.061,2
		c7.007,7.508,17.014,12.508,28.022,12.508c20.516,0,37.53-17.016,37.53-37.531c0-21.014-17.014-38.029-37.53-38.029
		c-11.008,0-21.015,5.008-28.022,13.008c-21.015,24.021-53.045,25.021-75.061,2.008c-8.007-8.008-18.015-15.016-30.022-15.016
		c-21.015,0-37.53,17.016-37.53,38.029C266.196,198.428,287.212,216.442,303.726,215.443z"/>
</g>
</svg>
