<?xml version="1.0" encoding="utf-8"?>
<!-- Generator: Adobe Illustrator 16.0.0, SVG Export Plug-In . SVG Version: 6.00 Build 0)  -->
<!DOCTYPE svg PUBLIC "-//W3C//DTD SVG 1.1//EN" "http://www.w3.org/Graphics/SVG/1.1/DTD/svg11.dtd" [
	<!ENTITY ns_flows "http://ns.adobe.com/Flows/1.0/">
	<!ENTITY ns_extend "http://ns.adobe.com/Extensibility/1.0/">
	<!ENTITY ns_ai "http://ns.adobe.com/AdobeIllustrator/10.0/">
	<!ENTITY ns_graphs "http://ns.adobe.com/Graphs/1.0/">
]>
<svg version="1.1" id="Layer_1" xmlns:x="&ns_extend;" xmlns:i="&ns_ai;" xmlns:graph="&ns_graphs;"
	 xmlns="http://www.w3.org/2000/svg" xmlns:xlink="http://www.w3.org/1999/xlink" xmlns:a="http://ns.adobe.com/AdobeSVGViewerExtensions/3.0/"
	 x="0px" y="0px" width="158px" height="35px" viewBox="0 0 158 35" enable-background="new 0 0 158 35" xml:space="preserve">
<g>
	<path fill="#FEFEFE" d="M106.228,11.689c-1.161-1.41-3.538-2.144-5.669-2.144c-2.045,0-3.731,0.733-5.031,2.171
		c-1.285,1.451-1.949,3.221-1.949,5.364c0,2.129,0.664,3.94,1.949,5.377c1.3,1.451,2.986,2.172,5.031,2.172
		c2.131,0,3.789-0.721,4.966-2.144v0.94c0,4.673-6.017,5.183-9.152,3.039l-1.397,3.25c1.467,0.87,3.623,1.438,6.097,1.438
		c4.245,0,8.695-2.434,8.695-7.934v-7.952c-0.125-2.874,3.789-2.776,3.595-0.29v9.981h4.244v-9.539
		c1.396-2.586,5.652-3.139,5.652,1.106v8.433h4.245v-9.483c1.299-2.668,5.627-3.221,5.627,1.051v3.982
		c-0.07,2.513,2.834,7.283,9.054,3.677l-1.688-3.375c-1.687,1.88-3.124,0.638-3.124-0.649v-4.588c0-7.397-8.267-7.354-10.893-3.472
		c-2.005-3.538-7.464-3.136-9.594-0.33C115.283,9.035,109.835,7.943,106.228,11.689L106.228,11.689z M101.79,20.951
		c-2.321,0-3.967-1.646-3.967-3.844c0-2.199,1.588-3.856,3.967-3.856c1.658,0,3.041,0.871,3.734,2.046v3.606
		C104.831,20.081,103.448,20.951,101.79,20.951L101.79,20.951z"/>
	<path fill="#FEFEFE" d="M155.965,21.477c-1.091,0.457-1.506-0.194-1.506-0.94v-5.087c0-1.838-0.609-3.347-1.977-4.327
		c-3.346-2.433-8.64-2.032-11.348,0.843l2.015,2.71c1.923-2.254,7.106-2.433,7.106,1.189v0.457c-1.202-0.636-2.654-0.927-4.34-0.927
		c-1.617,0-3.014,0.415-4.174,1.257c-1.176,0.844-1.759,2.074-1.759,3.679c0,3.026,2.298,5.019,5.546,5.019
		c2.128,0,3.843-0.693,5.17-2.047c1.009,2.268,4.313,2.447,6.04,1.092L155.965,21.477z M146.854,22.069
		c-1.573,0-2.681-0.636-2.681-1.963c0-1.23,1.147-1.949,2.944-1.949c1.231,0,2.254,0.306,3.138,0.872
		C150.396,20.26,149.274,22.069,146.854,22.069L146.854,22.069z"/>
	<path fill="#FEFEFE" d="M47.422,12.505c0.649,0.193,2.058,0.663,1.866,2.474v9.981h4.244v-8.351c0-3.829,5.654-4.714,5.654-0.082
		v8.433h4.244v-8.476c0-3.663,5.626-4.506,5.626,0.043v3.982C69,23.022,71.89,27.793,78.11,24.187l-1.687-3.375
		c-1.687,1.88-3.124,0.638-3.124-0.649v-4.588c0-7.397-8.267-7.354-10.879-3.472c-2.019-3.538-7.479-3.136-9.593-0.33
		c-0.622-1.037-1.743-1.936-3.747-2.24L47.422,12.505z"/>
	<path fill="#FEFEFE" d="M94.616,19.762c-0.817,2.517-3.856,2.088-3.856,0.774v-5.087c0-1.838-0.609-3.347-1.991-4.327
		c-3.347-2.433-8.627-2.032-11.336,0.843l2.018,2.71c1.922-2.254,7.093-2.433,7.093,1.189v0.457
		c-1.202-0.636-2.64-0.927-4.327-0.927c-1.632,0-3.014,0.415-4.188,1.257c-1.176,0.844-1.743,2.074-1.743,3.679
		c0,3.026,2.296,5.019,5.543,5.019c2.13,0,4.201-0.693,5.53-2.047c2.792,3.567,7.728,1.963,9.345-0.498L94.616,19.762z
		 M83.143,22.069c-1.563,0-2.669-0.636-2.669-1.963c0-1.23,1.134-1.949,2.945-1.949c1.229,0,2.253,0.306,3.124,0.872
		C86.693,20.26,85.56,22.069,83.143,22.069L83.143,22.069z"/>
	<path fill-rule="evenodd" clip-rule="evenodd" fill="#E31145" d="M18.364,10.417c0.829,0.013,0.981-1.271,0.055-1.217
		C17.547,9.256,17.562,10.402,18.364,10.417L18.364,10.417z M8.603,7.638c0.208-0.151,0.416-0.291,0.678-0.291
		c0.497,0,0.913,0.403,0.913,0.913c0,0.499-0.416,0.913-0.913,0.913c-0.249,0-0.47-0.096-0.636-0.249
		c-0.539-0.498-2.24-0.761-2.944-0.291C5.618,8.676,5.534,8.703,5.438,8.689C5.245,8.66,5.009,8.496,5.009,8.26
		c0-0.234,0.194-0.414,0.428-0.427c0.139-0.015,0.305,0.068,0.346,0.082C6.351,8.136,7.788,8.246,8.603,7.638L8.603,7.638z
		 M23.962,33.088c0.304,0,0.552,0.248,0.552,0.568c0,0.302-0.249,0.565-0.552,0.565c-0.318,0-0.567-0.264-0.567-0.565
		C23.396,33.336,23.644,33.088,23.962,33.088L23.962,33.088z M20.271,33.005c0.359,0,0.65,0.29,0.65,0.651
		c0,0.359-0.291,0.646-0.65,0.646s-0.649-0.287-0.649-0.646C19.622,33.295,19.912,33.005,20.271,33.005L20.271,33.005z
		 M16.594,32.936c0.387,0,0.706,0.317,0.706,0.721c0,0.387-0.318,0.703-0.706,0.703s-0.705-0.316-0.705-0.703
		C15.889,33.253,16.207,32.936,16.594,32.936L16.594,32.936z M12.917,33.268c0.208,0,0.373,0.179,0.373,0.389
		c0,0.207-0.166,0.373-0.373,0.373s-0.373-0.166-0.373-0.373C12.544,33.446,12.709,33.268,12.917,33.268L12.917,33.268z
		 M31.316,29.536c0.235,0,0.416,0.179,0.416,0.415c0,0.234-0.18,0.412-0.416,0.412c-0.235,0-0.414-0.178-0.414-0.412
		C30.902,29.715,31.081,29.536,31.316,29.536L31.316,29.536z M27.64,29.37c0.318,0,0.58,0.261,0.58,0.581
		c0,0.317-0.262,0.579-0.58,0.579c-0.318,0-0.581-0.262-0.581-0.579C27.059,29.631,27.321,29.37,27.64,29.37L27.64,29.37z
		 M23.962,29.023c0.511,0,0.912,0.414,0.912,0.928c0,0.51-0.401,0.926-0.912,0.926s-0.927-0.416-0.927-0.926
		C23.036,29.438,23.451,29.023,23.962,29.023L23.962,29.023z M20.271,28.831c0.622,0,1.134,0.496,1.134,1.12
		c0,0.62-0.512,1.133-1.134,1.133c-0.623,0-1.119-0.513-1.119-1.133C19.152,29.327,19.648,28.831,20.271,28.831L20.271,28.831z
		 M12.917,29.023c0.511,0,0.927,0.414,0.927,0.928c0,0.51-0.416,0.926-0.927,0.926s-0.926-0.416-0.926-0.926
		C11.991,29.438,12.406,29.023,12.917,29.023L12.917,29.023z M9.903,29.424c0.125,0.14,0.18,0.332,0.18,0.527
		c0,0.469-0.373,0.854-0.857,0.854c-0.47,0-0.843-0.386-0.843-0.854c0-0.236,0.083-0.443,0.236-0.595
		c0.843-0.858,0.303-1.62-0.208-2.199c-0.166-0.194-0.264-0.456-0.264-0.732c0-0.539,0.485-1.091,1.079-1.091
		c0.609,0,1.093,0.484,1.093,1.091c0,0.29-0.111,0.552-0.305,0.746C9.323,27.89,9.185,28.498,9.903,29.424L9.903,29.424z
		 M5.549,29.467c0.263,0,0.483,0.219,0.483,0.484c0,0.262-0.221,0.484-0.483,0.484c-0.263,0-0.485-0.223-0.485-0.484
		C5.064,29.686,5.286,29.467,5.549,29.467L5.549,29.467z M31.316,25.553c0.484,0,0.871,0.388,0.871,0.872
		c0,0.471-0.387,0.87-0.871,0.87c-0.483,0-0.87-0.399-0.87-0.87C30.446,25.94,30.833,25.553,31.316,25.553L31.316,25.553z
		 M12.917,24.946c0.815,0,1.465,0.663,1.465,1.479s-0.649,1.465-1.465,1.465c-0.816,0-1.479-0.649-1.479-1.465
		S12.101,24.946,12.917,24.946L12.917,24.946z M5.549,25.47c0.525,0,0.954,0.43,0.954,0.955c0,0.526-0.428,0.953-0.954,0.953
		c-0.526,0-0.954-0.427-0.954-0.953C4.595,25.899,5.023,25.47,5.549,25.47L5.549,25.47z M34.993,22.223
		c0.277,0,0.498,0.221,0.498,0.496c0,0.278-0.221,0.501-0.498,0.501c-0.262,0-0.484-0.223-0.484-0.501
		C34.509,22.443,34.731,22.223,34.993,22.223L34.993,22.223z M31.316,21.546c0.65,0,1.189,0.523,1.189,1.173
		c0,0.652-0.54,1.189-1.189,1.189s-1.174-0.537-1.174-1.189C30.142,22.069,30.666,21.546,31.316,21.546L31.316,21.546z
		 M9.226,21.337c0.774,0,1.396,0.624,1.396,1.382c0,0.774-0.623,1.385-1.396,1.385c-0.76,0-1.382-0.61-1.382-1.385
		C7.843,21.961,8.465,21.337,9.226,21.337L9.226,21.337z M6.198,21.85c0.277,0.192,0.442,0.51,0.442,0.869
		c0,0.609-0.484,1.094-1.092,1.094c-0.595,0-1.093-0.484-1.093-1.094c0-0.359,0.18-0.677,0.457-0.883
		c0.636-0.457,0.525-1.133-0.097-1.576c-0.344-0.234-0.566-0.621-0.566-1.064c0-0.721,0.58-1.313,1.299-1.313
		c0.718,0,1.299,0.593,1.299,1.313c0,0.455-0.235,0.858-0.594,1.093C5.618,20.703,5.604,21.406,6.198,21.85L6.198,21.85z
		 M1.872,22.292c0.235,0,0.442,0.193,0.442,0.427c0,0.251-0.208,0.443-0.442,0.443c-0.249,0-0.442-0.192-0.442-0.443
		C1.43,22.485,1.623,22.292,1.872,22.292L1.872,22.292z M34.993,18.475c0.401,0,0.719,0.32,0.719,0.721
		c0,0.388-0.318,0.719-0.719,0.719c-0.387,0-0.705-0.331-0.705-0.719C34.289,18.795,34.606,18.475,34.993,18.475L34.993,18.475z
		 M1.872,18.394c0.442,0,0.788,0.36,0.788,0.802c0,0.429-0.346,0.789-0.788,0.789c-0.442,0-0.788-0.36-0.788-0.789
		C1.083,18.754,1.43,18.394,1.872,18.394L1.872,18.394z M34.993,14.744c0.415,0,0.761,0.332,0.761,0.747
		c0,0.415-0.346,0.747-0.761,0.747s-0.747-0.332-0.747-0.747C34.247,15.076,34.579,14.744,34.993,14.744L34.993,14.744z
		 M31.316,14.287c0.664,0,1.217,0.54,1.217,1.204c0,0.663-0.553,1.203-1.217,1.203c-0.664,0-1.202-0.54-1.202-1.203
		C30.114,14.827,30.652,14.287,31.316,14.287L31.316,14.287z M1.872,14.619c0.483,0,0.87,0.388,0.87,0.872
		c0,0.483-0.387,0.871-0.87,0.871C1.387,16.361,1,15.974,1,15.491C1,15.007,1.387,14.619,1.872,14.619L1.872,14.619z M34.993,11.482
		c0.277,0,0.484,0.207,0.484,0.483c0,0.263-0.207,0.47-0.484,0.47c-0.262,0-0.469-0.207-0.469-0.47
		C34.524,11.689,34.731,11.482,34.993,11.482L34.993,11.482z M31.316,10.915c0.581,0,1.038,0.47,1.038,1.05
		c0,0.567-0.457,1.037-1.038,1.037c-0.566,0-1.036-0.47-1.036-1.037C30.28,11.385,30.75,10.915,31.316,10.915L31.316,10.915z
		 M9.226,10.542c0.788,0,1.424,0.633,1.424,1.422c0,0.774-0.636,1.41-1.424,1.41c-0.774,0-1.41-0.636-1.41-1.41
		C7.815,11.176,8.452,10.542,9.226,10.542L9.226,10.542z M5.549,11.109c0.47,0,0.856,0.386,0.856,0.856
		c0,0.47-0.386,0.843-0.856,0.843c-0.469,0-0.844-0.374-0.844-0.843C4.705,11.495,5.08,11.109,5.549,11.109L5.549,11.109z
		 M1.872,11.495c0.263,0,0.47,0.208,0.47,0.47c0,0.25-0.208,0.456-0.47,0.456s-0.47-0.207-0.47-0.456
		C1.401,11.702,1.609,11.495,1.872,11.495L1.872,11.495z M31.316,7.376c0.498,0,0.885,0.4,0.885,0.883s-0.387,0.886-0.885,0.886
		c-0.483,0-0.885-0.402-0.885-0.886S30.833,7.376,31.316,7.376L31.316,7.376z M27.64,7.058c0.663,0,1.202,0.539,1.202,1.202
		c0,0.664-0.539,1.203-1.202,1.203c-0.665,0-1.204-0.539-1.204-1.203C26.436,7.596,26.975,7.058,27.64,7.058L27.64,7.058z
		 M23.962,7.017c0.677,0,1.229,0.566,1.229,1.243c0,0.677-0.553,1.23-1.229,1.23c-0.691,0-1.245-0.553-1.245-1.23
		C22.717,7.583,23.271,7.017,23.962,7.017L23.962,7.017z M31.316,4.348c0.222,0,0.387,0.166,0.387,0.373
		c0,0.223-0.166,0.387-0.387,0.387c-0.208,0-0.387-0.165-0.387-0.387C30.929,4.514,31.108,4.348,31.316,4.348L31.316,4.348z
		 M27.64,4.044c0.373,0,0.677,0.304,0.677,0.677c0,0.387-0.304,0.692-0.677,0.692s-0.678-0.305-0.678-0.692
		C26.962,4.348,27.267,4.044,27.64,4.044L27.64,4.044z M24.557,4.085c0.137,0.193,0.276,0.389,0.276,0.636
		c0,0.499-0.388,0.885-0.871,0.885c-0.498,0-0.885-0.387-0.885-0.885c0-0.22,0.097-0.443,0.235-0.594
		c0.457-0.513,0.733-2.17,0.291-2.849c-0.055-0.069-0.083-0.15-0.069-0.248c0.027-0.193,0.193-0.416,0.429-0.416
		c0.221,0,0.415,0.18,0.415,0.416c0,0.041-0.055,0.207-0.069,0.248C24.086,1.819,23.92,3.242,24.557,4.085L24.557,4.085z
		 M12.917,3.685c0.332,0,0.608,0.193,0.83,0.416c0.608,0.635,1.493,0.608,2.073-0.056c0.193-0.222,0.471-0.36,0.774-0.36
		c0.567,0,1.037,0.47,1.037,1.051c0,0.566-0.47,1.036-1.037,1.036c-0.304,0-0.581-0.137-0.774-0.344
		c-0.511-0.581-1.631-0.596-2.128-0.057c-0.194,0.208-0.471,0.373-0.774,0.4C12.461,5.8,11.88,5.302,11.88,4.735
		C11.88,4.154,12.335,3.685,12.917,3.685L12.917,3.685z M9.226,3.823c0.498,0,0.912,0.415,0.912,0.898
		c0,0.499-0.415,0.913-0.912,0.913c-0.483,0-0.898-0.414-0.898-0.913C8.327,4.237,8.742,3.823,9.226,3.823L9.226,3.823z
		 M5.549,4.293c0.248,0,0.442,0.194,0.442,0.428c0,0.25-0.194,0.442-0.442,0.442c-0.235,0-0.429-0.193-0.429-0.442
		C5.12,4.487,5.313,4.293,5.549,4.293L5.549,4.293z M20.271,0.368c0.373,0,0.664,0.303,0.664,0.663c0,0.358-0.292,0.664-0.664,0.664
		c-0.359,0-0.649-0.306-0.649-0.664C19.622,0.671,19.912,0.368,20.271,0.368L20.271,0.368z M16.594,0.409
		c0.346,0,0.622,0.277,0.622,0.622c0,0.345-0.276,0.622-0.622,0.622s-0.622-0.277-0.622-0.622
		C15.972,0.686,16.248,0.409,16.594,0.409L16.594,0.409z M12.917,0.615c0.235,0,0.415,0.18,0.415,0.416
		c0,0.234-0.179,0.414-0.415,0.414c-0.235,0-0.429-0.18-0.429-0.414C12.488,0.795,12.682,0.615,12.917,0.615L12.917,0.615z
		 M18.474,24.324c0.318,0,0.58,0.277,0.58,0.595c0,0.331-0.262,0.593-0.58,0.593c-0.332,0-0.595-0.262-0.595-0.593
		C17.879,24.602,18.143,24.324,18.474,24.324L18.474,24.324z M26.851,21.794c0.208-0.179,0.483-0.289,0.789-0.289
		c0.677,0,1.216,0.537,1.216,1.214c0,0.278-0.083,0.526-0.235,0.735c-0.568,0.744-1.051,1.271-0.18,2.099
		c0.221,0.223,0.374,0.525,0.374,0.872c0,0.649-0.526,1.176-1.175,1.176c-0.65,0-1.176-0.526-1.176-1.176
		c0-0.358,0.167-0.663,0.401-0.899c0.816-0.76,0.332-1.422-0.125-1.977c-0.54-0.662-0.843-0.607-1.313,0.127
		c-0.318,0.482-0.856,0.855-1.465,0.855c-0.803,0-1.01-0.359-1.424-0.319c-0.373,0.029-0.705,0.277-0.705,0.638
		c0.013,0.484,0.318,0.689,0.636,0.689c0.566,0,0.802-0.512,1.493-0.512c0.76,0,1.382,0.624,1.382,1.397
		c0,0.761-0.622,1.382-1.382,1.382c-0.332,0-0.623-0.137-0.871-0.302c-0.483-0.319-0.83-0.844-1.465,0.026
		c-0.291,0.414-0.802,0.637-1.355,0.637c-0.636,0-1.271-0.457-1.479-1.011c-0.111-0.25-0.401-0.471-0.677,0.069
		c-0.111,0.207-0.262,0.388-0.429,0.541c-0.47,0.453-1.064,0.689-0.317,1.451c0.179,0.191,0.29,0.453,0.29,0.732
		c0,0.593-0.484,1.063-1.065,1.063s-1.064-0.471-1.064-1.063c0-0.279,0.11-0.541,0.29-0.732c0.677-0.664,0.305-0.914-0.317-1.426
		c-0.401-0.332-0.664-0.816-0.664-1.368c0-0.372,0.11-0.721,0.304-0.996c0.609-0.813-0.498-1.796-1.298-1.217
		c-0.264,0.181-0.595,0.264-0.927,0.264c-0.968,0-1.755-0.788-1.755-1.757c0-0.262,0.083-0.496,0.179-0.718
		c0.318-0.802-0.636-1.604-1.479-1.176c-0.18,0.097-0.4,0.112-0.622,0.112c-0.968,0-1.756-0.775-1.756-1.742
		c0-0.969,0.788-1.756,1.756-1.756c0.29,0,0.581,0.068,0.83,0.208c1.341,0.802,1.437-1.549-0.042-0.72
		c-0.235,0.125-0.512,0.208-0.788,0.223c-0.664,0.042-1.23-0.374-1.493-0.926c-0.346-0.678-1.01-0.596-1.466-0.07
		c-0.179,0.194-0.442,0.318-0.732,0.318c-0.54,0-0.982-0.442-0.982-0.981c0-0.54,0.442-0.982,0.982-0.982
		c0.332,0,0.608,0.152,0.788,0.4c0.373,0.5,1.091,0.582,1.368-0.054c0.249-0.609,0.843-1.023,1.535-1.023
		c0.262,0,0.525,0.07,0.76,0.18c0.885,0.429,1.728-0.47,1.328-1.286c-0.111-0.221-0.166-0.483-0.166-0.761
		c0-0.705,0.415-1.298,0.995-1.589c0.594-0.29,0.317-0.76-0.042-1.037c-0.317-0.263-0.538-0.636-0.538-1.079
		c0-0.732,0.594-1.34,1.341-1.34c0.732,0,1.341,0.704,1.327,1.34c0,0.443-0.291,0.857-0.539,1.176
		c-0.525,0.65,0.207,1.258,0.705,1.258c0.58,0,1.383-0.664,0.802-1.354c-0.249-0.291-0.373-0.679-0.373-1.079
		c0-0.966,0.788-1.755,1.755-1.755c0.483,0,0.913,0.235,1.244,0.526C18.226,7.362,18.529,7.61,19,7.058
		c0.138-0.151,0.304-0.277,0.484-0.374c0.663-0.331,0.525-0.787,0.11-1.174c-0.207-0.194-0.359-0.471-0.359-0.775
		c0-0.581,0.469-1.051,1.037-1.051c0.581,0,1.037,0.47,1.037,1.051c0,0.289-0.125,0.566-0.318,0.746
		c-0.76,0.679-0.276,0.969,0.235,1.3c0.485,0.29,0.802,0.857,0.802,1.479c0,0.209-0.027,0.43-0.11,0.623
		c-0.235,0.607-0.471,1.064,0.055,1.547c0.442,0.415,0.76,0.375,1.354,0.112c0.194-0.084,0.401-0.125,0.637-0.125
		c0.511,0.028,0.967,0.263,1.244,0.649c0.664,0.926,1.189,0.499,1.728,0.056c0.194-0.167,0.429-0.263,0.706-0.263
		c0.608,0,1.092,0.497,1.092,1.105c0,0.594-0.484,1.093-1.092,1.093c-0.277,0-0.539-0.029-0.747-0.193
		c-0.635-0.47-1.646,0.386-1.023,1.16c0.332,0.416,0.815,0.29,1.105,0.166c0.209-0.097,0.43-0.166,0.665-0.166
		c0.802,0,1.452,0.664,1.452,1.466c0,0.8-0.65,1.464-1.452,1.464c-0.263,0-0.498-0.096-0.733-0.194
		c-1.355-0.621-1.383,1.854,0.055,1.094c0.222-0.11,0.456-0.194,0.678-0.194c0.497-0.014,0.926,0.221,1.216,0.609
		c0.732,1.008,1.34,0.648,1.977,0.193c0.138-0.083,0.305-0.139,0.483-0.139c0.484,0,0.871,0.387,0.871,0.871
		c0,0.471-0.387,0.858-0.871,0.858c-0.179,0-0.359-0.058-0.498-0.153c-0.816-0.596-1.299-0.443-2.087,0.359
		c-0.276,0.29-0.664,0.457-1.092,0.457c-0.333,0-0.623-0.112-0.872-0.264c-0.802-0.514-1.383,0.068-1.383,0.734
		C25.385,21.767,26.036,22.443,26.851,21.794L26.851,21.794z"/>
</g>
</svg>
