<svg xmlns="http://www.w3.org/2000/svg" width="17" height="13.31" viewBox="0 0 17 13.31">
  <defs>
    <style>
      .cls-1 {
        fill: #fff;
        fill-rule: evenodd;
        opacity: 0.5;
      }
    </style>
  </defs>
  <path id="Twitter_Icon" data-name="Twitter Icon" class="cls-1" d="M1195.99,2094.59a9.99,9.99,0,0,1-1.7,3.48,8.365,8.365,0,0,1-9.11,3.22,8.526,8.526,0,0,1-4.19-2.69c0.22,0.08.45,0.17,0.68,0.23a5.789,5.789,0,0,0,4.05-.34,3.2,3.2,0,0,1-2.2-2.97,3.6,3.6,0,0,0,.54.22,2.829,2.829,0,0,0,.82.09,3.262,3.262,0,0,1-1.58-3.76l0.01-.04a3.124,3.124,0,0,0,1.25.77,3.484,3.484,0,0,1,.17-4.51,8.829,8.829,0,0,0,5.27,5.03,3.012,3.012,0,0,1,.12-0.74,3.121,3.121,0,0,1,3.81-2.36,3.038,3.038,0,0,1,1.9,1.6,6.116,6.116,0,0,0,2.09-.24,3.18,3.18,0,0,1-1.77,1.38,5.169,5.169,0,0,0,1.84-.03,6.1,6.1,0,0,1-1.91,1.24A2.1,2.1,0,0,1,1195.99,2094.59Z" transform="translate(-1181 -2088.28)"/>
</svg>
